<svg xmlns="http://www.w3.org/2000/svg" xmlns:xlink="http://www.w3.org/1999/xlink" width="72" height="72" viewBox="0 0 72 72">
    <defs>
        <path id="a" d="M32.788 2.742L29.034.684l-2.685 3.33-4.087-1.282-1.978 3.79-4.257-.457-1.196 4.103-4.268.377-.376 4.256-4.113 1.195.462 4.25-3.798 1.977 1.283 4.073-3.338 2.68 2.063 3.747L0 36l2.746 3.278-2.063 3.745 3.338 2.68-1.283 4.074 3.798 1.976-.463 4.25 4.114 1.195.376 4.257 4.266.378 1.197 4.102 4.258-.459 1.978 3.791 4.086-1.275 2.685 3.325 3.755-2.06L36.07 72l3.284-2.743 3.754 2.06 2.685-3.325 4.084 1.278 1.977-3.794 4.258.46 1.196-4.103 4.267-.378.377-4.256 4.114-1.195-.46-4.25 3.799-1.977-1.284-4.074 3.335-2.68-2.065-3.745L72 36.171v-.343l-2.608-3.105 2.065-3.746-3.335-2.681 1.284-4.073-3.799-1.977.461-4.25-4.115-1.194-.375-4.257-4.27-.377-1.192-4.103-4.26.459-1.971-3.792-4.091 1.283-2.685-3.33-3.754 2.057L36.07 0z"/>
    </defs>
    <g fill="none" fill-rule="evenodd">
        <use fill="#AD2118" xlink:href="#a"/>
        <path fill="#FFF" d="M41.085 55.55c1.3 0 4.922-1.94 3.58-2.83-.85-.561-1.845-1.306-3.687-2.723-.823-.633-1.186-.458-1.438-.458-.756 0 .473-1.231.066-2.23-.448-1.08-.702-2.74-1.08-3.12-.38-.381-.225-2.385.57-3.183.866-.872 2.115-3.405 2.8-4.38.816-1.161 1.375-3.71 1.053-4.036-.327-.325-1.813-3.42-2.462-4.073-.419-.42-1.103-1.457-1.794-2.295l-.162-.234-.7.402c-.353.202-.748.515-1.054.774a2.127 2.127 0 0 1-1.523.515 7.696 7.696 0 0 1-.98-.136c-.75-.151-1.018-.68-1.018-1.281 0-.603-.392-.45-.392-.45s-6.417.341-6.93.64c-.385.227-1.75 2.03-2.403 2.909a2.108 2.108 0 0 0-.41 1.066c-.226 2.387-1.011 11.271-.215 12.073 1.102 1.104 6.237 10.178 7.31 11.257 1.068 1.473 9.571 1.793 10.869 1.793M28.136 29.572c-.723.133-1.892-.074-2.442.932l-.985 4.302c-.04.175-.058.346-.054.526.025.986.119 4.45.205 5.224.1.905 1.275 3.858 1.936 4.523.58.58 1.105 2.514 2.127 3.527.28.274.842.408 1.077.728.425.578.762.18 0-.954-2.804-4.172-3.41-7.771-3.55-8.385-.3-1.34-.078-4.498 0-5.763.042-.67.505-2.17.942-2.506.209-.16 2.13-.372 2.52-.486.601-.176 1.453-.163 2.003-.276 1.765-.364 4.4.539 4.622.644 2.64 1.224 1.614 1.651 1.655 1.796.043.15-3.676 7.664-3.657 8.015.017.38.15 4.14.503 5.167.102.302 1.274 3.146 1.487 3.661.932 2.257-2-.373-2.188-.479-.189-.105-3.445-6.767-4.005-8.18-.376-.95-.238-2.378-.164-2.684.1-.416-.2-3.638.397-4.079.404-.296 1.608-.48 2.479-.094.794.351 1.218 1.239 1.137 1.455-.064.178-1.318 4.236-1.513 3.9-.063-.111-.067-1.396-.234-1.524-.167-.13-.482-.327-.595-.176-.113.15-.338 1.51-.22 1.98.56 2.254 1.257 1.552 1.5 1.132.365-.627 2.13-5.615 2.099-5.936-.076-.738-.615-2.004-1.762-2.39-.687-.231-3.07-.102-3.894.33-1.263.666-1.187 6.44-.948 7.274.241.832 3.615 7.542 3.803 8.056.37 1.006 2.777 3.393 3.154 3.618.156.094 3.448 1.373 3.869.737.187-.284.095-1.061-.722-1.599-.786-.519-2.662-6.001-2.655-6.434.005-.4-.49-3.45-.161-4.087.624-1.212 5.097-7.948 4.608-8.488-.659-.728-2.662-4.13-3.607-2.847-.85 1.157-4.27-.033-5.27-.77-.077-.057-2.447.419-3.497.61m18.988-15.827c.236.027.946.255 1.488.437.435.146.81.431 1.07.811.531.772 1.44 2.084 1.741 2.455.437.536.243.924.243.924l-.837 3.064s.305.248 0 0c-.304-.248-2.557-.043-3.09.005-.533.048.485-.634.728-.877.242-.243 1.211-.925 1.091-1.317-.068-.222-.567-1.228-.987-2.061a2.118 2.118 0 0 0-1.921-1.169c-.813.011-1.817.04-2.45.117-.891.107-2.501 1.508-3.295 2.246a2.13 2.13 0 0 0-.62 1.048l-.522 2.08c-.193.768.032 1.605.639 2.112l.016.013c.533.438 2.084.291 2.667.243.58-.049.338.633-.147 1.07-.485.44-2.23.44-2.23.44l.724.246c.806.728 2.278 4.475 3.144 5.347.867.87-.027 5.264-1.27 6.517-1.246 1.249-1.843 3.936-2.6 4.698-.759.763-1.543.461-.759 1.25.788.79.42 1.741.542 2.43.082.453.21 1.268.592 1.646.377.38 6.134 4.385 8.444 4.568.422.033.426 2.073-1.944 4.576 0 0-.425 1.45-4.375 1.573-4.309.136-8.552-.584-9.528-.584-.825 0-2.981-1.159-3.624-1.514a2.018 2.018 0 0 1-.57-.462c-1.764-2.06-8.554-12.304-8.554-13.084 0-.87-.64-3.217-.64-4.089 0-.872 1.002-8.837.841-9.8-.126-.759.267-.933 1.134-1.804.867-.872 2.43-2.345 3.025-2.944.269-.266 2.344-.209 4.858-.747l.389-.167-.5-.245s-.809-1.02-2.118-.972c-1.309.05-1.746.145-1.068-.145.271-.117.627-.334.957-.552a2.129 2.129 0 0 1 2.04-.178l1.345.596c.27.12.563.182.86.182h.34c.494-.001.971-.173 1.352-.487l2.114-1.746 5.669-4.628a2.121 2.121 0 0 1 1.036-.457l4.56-.665"/>
    </g>
</svg>
