<svg xmlns="http://www.w3.org/2000/svg" xmlns:xlink="http://www.w3.org/1999/xlink" width="48" height="48" viewBox="0 0 48 48">
    <defs>
        <path id="a" d="M24 22a5 5 0 1 0 0-10 5 5 0 0 0 0 10zm0 2a7 7 0 1 1 0-14 7 7 0 0 1 0 14zm8.746 9.396C31.666 30.26 28 28 23.998 28c-4.003 0-7.674 2.262-8.747 5.394-.637 1.86-.016 2.606 1.328 2.606h14.836c1.353 0 1.972-.744 1.331-2.604zm1.93-.092c1.1 3.497-.813 4.696-2.56 4.696H15.877c-1.734 0-3.65-1.2-2.557-4.697C14.675 28.967 19.203 26 23.998 26c4.796 0 9.316 2.967 10.679 7.304z"/>
    </defs>
    <g fill="none" fill-rule="evenodd">
        <mask id="b" fill="#fff">
            <use xlink:href="#a"/>
        </mask>
        <use fill="#666" fill-rule="nonzero" xlink:href="#a"/>
        <g fill="#451400" mask="url(#b)">
            <path d="M0 0h48v48H0z"/>
        </g>
    </g>
</svg>
